HIERARCHY
ROOT Hips
{
	OFFSET -37.322651 -40.248280 87.840942
	CHANNELS 6 Xposition Yposition Zposition Zrotation Yrotation Xrotation
	JOINT Spine
	{
		OFFSET 0.000000 2.080109 8.814247
		CHANNELS 6 Xposition Yposition Zposition Zrotation Yrotation Xrotation
		JOINT Spine1
		{
			OFFSET 0.000000 0.000000 8.844139
			CHANNELS 6 Xposition Yposition Zposition Zrotation Yrotation Xrotation
			JOINT Spine2
			{
				OFFSET 0.000000 0.000000 11.682266
				CHANNELS 6 Xposition Yposition Zposition Zrotation Yrotation Xrotation
				JOINT Spine3
				{
					OFFSET 0.000000 0.000004 11.746704
					CHANNELS 6 Xposition Yposition Zposition Zrotation Yrotation Xrotation
					JOINT Neck
					{
						OFFSET 0.000000 0.000000 17.658264
						CHANNELS 6 Xposition Yposition Zposition Zrotation Yrotation Xrotation
						JOINT Neck1
						{
							OFFSET 0.000000 0.000000 5.101517
							CHANNELS 6 Xposition Yposition Zposition Zrotation Yrotation Xrotation
							JOINT Head
							{
								OFFSET 0.000000 0.000000 5.101517
								CHANNELS 6 Xposition Yposition Zposition Zrotation Yrotation Xrotation
								JOINT HeadEnd
								{
									OFFSET 0.000000 0.000000 11.655090
									CHANNELS 6 Xposition Yposition Zposition Zrotation Yrotation Xrotation
									End Site
									{
										OFFSET 0.000000 0.000000 0.100006
									}
								}
							}
						}
					}
					JOINT RightShoulder
					{
						OFFSET -2.625389 0.000000 11.175217
						CHANNELS 6 Xposition Yposition Zposition Zrotation Yrotation Xrotation
						JOINT RightArm
						{
							OFFSET 0.000000 0.000000 10.434723
							CHANNELS 6 Xposition Yposition Zposition Zrotation Yrotation Xrotation
							JOINT RightForeArm
							{
								OFFSET 0.000000 0.000004 29.628418
								CHANNELS 6 Xposition Yposition Zposition Zrotation Yrotation Xrotation
								JOINT RightHand
								{
									OFFSET 0.000000 0.000000 22.857605
									CHANNELS 6 Xposition Yposition Zposition Zrotation Yrotation Xrotation
									JOINT RightHandThumb1
									{
										OFFSET -2.867321 -2.944290 3.959564
										CHANNELS 6 Xposition Yposition Zposition Zrotation Yrotation Xrotation
										JOINT RightHandThumb2
										{
											OFFSET 0.000000 0.000000 3.350403
											CHANNELS 6 Xposition Yposition Zposition Zrotation Yrotation Xrotation
											JOINT RightHandThumb3
											{
												OFFSET 0.000000 0.000000 3.756516
												CHANNELS 6 Xposition Yposition Zposition Zrotation Yrotation Xrotation
												JOINT RightHandThumb4
												{
													OFFSET 0.000000 0.000000 3.147339
													CHANNELS 6 Xposition Yposition Zposition Zrotation Yrotation Xrotation
													End Site
													{
														OFFSET 0.000000 0.000000 0.100006
													}
												}
											}
										}
									}
									JOINT RightHandIndex1
									{
										OFFSET -0.086754 -2.345280 10.030899
										CHANNELS 6 Xposition Yposition Zposition Zrotation Yrotation Xrotation
										JOINT RightHandIndex2
										{
											OFFSET 0.000000 0.000000 4.061096
											CHANNELS 6 Xposition Yposition Zposition Zrotation Yrotation Xrotation
											JOINT RightHandIndex3
											{
												OFFSET 0.000000 0.000000 3.248871
												CHANNELS 6 Xposition Yposition Zposition Zrotation Yrotation Xrotation
												JOINT RightHandIndex4
												{
													OFFSET 0.000000 0.000000 2.639709
													CHANNELS 6 Xposition Yposition Zposition Zrotation Yrotation Xrotation
													End Site
													{
														OFFSET 0.000000 0.000000 0.100006
													}
												}
											}
										}
									}
									JOINT RightHandMiddle1
									{
										OFFSET 0.104103 -0.006767 9.502945
										CHANNELS 6 Xposition Yposition Zposition Zrotation Yrotation Xrotation
										JOINT RightHandMiddle2
										{
											OFFSET 0.000000 0.000000 4.568726
											CHANNELS 6 Xposition Yposition Zposition Zrotation Yrotation Xrotation
											JOINT RightHandMiddle3
											{
												OFFSET 0.000000 0.000000 3.654984
												CHANNELS 6 Xposition Yposition Zposition Zrotation Yrotation Xrotation
												JOINT RightHandMiddle4
												{
													OFFSET 0.000000 0.000000 2.741241
													CHANNELS 6 Xposition Yposition Zposition Zrotation Yrotation Xrotation
													End Site
													{
														OFFSET 0.000000 0.000000 0.100006
													}
												}
											}
										}
									}
									JOINT RightHandRing1
									{
										OFFSET 0.086754 2.267441 8.921707
										CHANNELS 6 Xposition Yposition Zposition Zrotation Yrotation Xrotation
										JOINT RightHandRing2
										{
											OFFSET 0.000000 0.000000 4.061096
											CHANNELS 6 Xposition Yposition Zposition Zrotation Yrotation Xrotation
											JOINT RightHandRing3
											{
												OFFSET 0.000000 0.000000 3.654984
												CHANNELS 6 Xposition Yposition Zposition Zrotation Yrotation Xrotation
												JOINT RightHandRing4
												{
													OFFSET 0.000000 0.000000 2.741241
													CHANNELS 6 Xposition Yposition Zposition Zrotation Yrotation Xrotation
													End Site
													{
														OFFSET 0.000000 0.000000 0.100006
													}
												}
											}
										}
									}
									JOINT RightHandPinky1
									{
										OFFSET -0.173504 4.467197 7.976990
										CHANNELS 6 Xposition Yposition Zposition Zrotation Yrotation Xrotation
										JOINT RightHandPinky2
										{
											OFFSET 0.000000 0.000000 3.350403
											CHANNELS 6 Xposition Yposition Zposition Zrotation Yrotation Xrotation
											JOINT RightHandPinky3
											{
												OFFSET 0.000000 0.000000 2.842758
												CHANNELS 6 Xposition Yposition Zposition Zrotation Yrotation Xrotation
												JOINT RightHandPinky4
												{
													OFFSET 0.000000 0.000000 2.639709
													CHANNELS 6 Xposition Yposition Zposition Zrotation Yrotation Xrotation
													End Site
													{
														OFFSET 0.000000 0.000000 0.100006
													}
												}
											}
										}
									}
									JOINT RightForeArmEnd
									{
										OFFSET 0.000000 0.000000 0.000000
										CHANNELS 6 Xposition Yposition Zposition Zrotation Yrotation Xrotation
										End Site
										{
											OFFSET 0.000000 0.000000 0.100006
										}
									}
								}
								JOINT RightArmEnd
								{
									OFFSET 0.000000 0.000000 0.000000
									CHANNELS 6 Xposition Yposition Zposition Zrotation Yrotation Xrotation
									End Site
									{
										OFFSET 0.000000 0.000000 0.100006
									}
								}
							}
						}
					}
					JOINT LeftShoulder
					{
						OFFSET 2.625389 0.000000 11.175217
						CHANNELS 6 Xposition Yposition Zposition Zrotation Yrotation Xrotation
						JOINT LeftArm
						{
							OFFSET 0.000000 0.000000 10.813629
							CHANNELS 6 Xposition Yposition Zposition Zrotation Yrotation Xrotation
							JOINT LeftForeArm
							{
								OFFSET 0.000000 0.000004 28.724777
								CHANNELS 6 Xposition Yposition Zposition Zrotation Yrotation Xrotation
								JOINT LeftHand
								{
									OFFSET 0.644382 0.328873 25.716171
									CHANNELS 6 Xposition Yposition Zposition Zrotation Yrotation Xrotation
									JOINT LeftHandThumb1
									{
										OFFSET 2.867323 -2.944290 3.959564
										CHANNELS 6 Xposition Yposition Zposition Zrotation Yrotation Xrotation
										JOINT LeftHandThumb2
										{
											OFFSET 0.000000 0.000000 3.350403
											CHANNELS 6 Xposition Yposition Zposition Zrotation Yrotation Xrotation
											JOINT LeftHandThumb3
											{
												OFFSET 0.000000 0.000000 3.756516
												CHANNELS 6 Xposition Yposition Zposition Zrotation Yrotation Xrotation
												JOINT LeftHandThumb4
												{
													OFFSET 0.000000 0.000000 3.100006
													CHANNELS 6 Xposition Yposition Zposition Zrotation Yrotation Xrotation
													End Site
													{
														OFFSET 0.000000 0.000000 0.100006
													}
												}
											}
										}
									}
									JOINT LeftHandIndex1
									{
										OFFSET 0.086754 -2.345280 10.030899
										CHANNELS 6 Xposition Yposition Zposition Zrotation Yrotation Xrotation
										JOINT LeftHandIndex2
										{
											OFFSET 0.000000 0.000000 4.061096
											CHANNELS 6 Xposition Yposition Zposition Zrotation Yrotation Xrotation
											JOINT LeftHandIndex3
											{
												OFFSET 0.000000 0.000000 3.248871
												CHANNELS 6 Xposition Yposition Zposition Zrotation Yrotation Xrotation
												JOINT LeftHandIndex4
												{
													OFFSET 0.000000 0.000000 2.639709
													CHANNELS 6 Xposition Yposition Zposition Zrotation Yrotation Xrotation
													End Site
													{
														OFFSET 0.000000 0.000000 0.100006
													}
												}
											}
										}
									}
									JOINT LeftHandMiddle1
									{
										OFFSET -0.104103 -0.006767 9.502945
										CHANNELS 6 Xposition Yposition Zposition Zrotation Yrotation Xrotation
										JOINT LeftHandMiddle2
										{
											OFFSET 0.000000 0.000000 4.568726
											CHANNELS 6 Xposition Yposition Zposition Zrotation Yrotation Xrotation
											JOINT LeftHandMiddle3
											{
												OFFSET 0.000000 0.000000 3.654984
												CHANNELS 6 Xposition Yposition Zposition Zrotation Yrotation Xrotation
												JOINT LeftHandMiddle4
												{
													OFFSET 0.000000 0.000000 2.741241
													CHANNELS 6 Xposition Yposition Zposition Zrotation Yrotation Xrotation
													End Site
													{
														OFFSET 0.000000 0.000000 0.100006
													}
												}
											}
										}
									}
									JOINT LeftHandRing1
									{
										OFFSET -0.086754 2.267441 8.921707
										CHANNELS 6 Xposition Yposition Zposition Zrotation Yrotation Xrotation
										JOINT LeftHandRing2
										{
											OFFSET 0.000000 0.000000 4.061096
											CHANNELS 6 Xposition Yposition Zposition Zrotation Yrotation Xrotation
											JOINT LeftHandRing3
											{
												OFFSET 0.000000 0.000000 3.654984
												CHANNELS 6 Xposition Yposition Zposition Zrotation Yrotation Xrotation
												JOINT LeftHandRing4
												{
													OFFSET 0.000000 0.000000 2.741241
													CHANNELS 6 Xposition Yposition Zposition Zrotation Yrotation Xrotation
													End Site
													{
														OFFSET 0.000000 0.000000 0.100006
													}
												}
											}
										}
									}
									JOINT LeftHandPinky1
									{
										OFFSET 0.173504 4.467197 7.976990
										CHANNELS 6 Xposition Yposition Zposition Zrotation Yrotation Xrotation
										JOINT LeftHandPinky2
										{
											OFFSET 0.000000 0.000000 3.350403
											CHANNELS 6 Xposition Yposition Zposition Zrotation Yrotation Xrotation
											JOINT LeftHandPinky3
											{
												OFFSET 0.000000 0.000000 2.842758
												CHANNELS 6 Xposition Yposition Zposition Zrotation Yrotation Xrotation
												JOINT LeftHandPinky4
												{
													OFFSET 0.000000 0.000000 2.639709
													CHANNELS 6 Xposition Yposition Zposition Zrotation Yrotation Xrotation
													End Site
													{
														OFFSET 0.000000 0.000000 0.100006
													}
												}
											}
										}
									}
									JOINT LeftForeArmEnd
									{
										OFFSET 0.000000 0.000000 0.000000
										CHANNELS 6 Xposition Yposition Zposition Zrotation Yrotation Xrotation
										End Site
										{
											OFFSET 0.000000 0.000000 0.100006
										}
									}
								}
								JOINT LeftArmEnd
								{
									OFFSET 0.000000 0.000000 0.000000
									CHANNELS 6 Xposition Yposition Zposition Zrotation Yrotation Xrotation
									End Site
									{
										OFFSET 0.000000 0.000000 0.100006
									}
								}
							}
						}
					}
				}
			}
		}
	}
	JOINT RightUpLeg
	{
		OFFSET -11.289944 0.000000 0.000000
		CHANNELS 6 Xposition Yposition Zposition Zrotation Yrotation Xrotation
		JOINT RightLeg
		{
			OFFSET 0.000000 -0.000004 -38.200321
			CHANNELS 6 Xposition Yposition Zposition Zrotation Yrotation Xrotation
			JOINT RightFoot
			{
				OFFSET 0.000000 -0.000004 -39.900856
				CHANNELS 6 Xposition Yposition Zposition Zrotation Yrotation Xrotation
				JOINT RightToeBase
				{
					OFFSET 0.000000 -15.261639 0.000001
					CHANNELS 6 Xposition Yposition Zposition Zrotation Yrotation Xrotation
					JOINT RightToeBaseEnd
					{
						OFFSET 0.000000 -7.370708 0.000001
						CHANNELS 6 Xposition Yposition Zposition Zrotation Yrotation Xrotation
						End Site
						{
							OFFSET 0.000000 0.000000 0.100000
						}
					}
				}
				JOINT RightLegEnd
				{
					OFFSET 0.000000 0.000000 0.000000
					CHANNELS 6 Xposition Yposition Zposition Zrotation Yrotation Xrotation
					End Site
					{
						OFFSET 0.000000 0.000000 0.100000
					}
				}
			}
			JOINT RightUpLegEnd
			{
				OFFSET 0.000000 0.000000 0.000000
				CHANNELS 6 Xposition Yposition Zposition Zrotation Yrotation Xrotation
				End Site
				{
					OFFSET 0.000000 0.000000 0.099998
				}
			}
		}
	}
	JOINT LeftUpLeg
	{
		OFFSET 11.315662 0.000000 0.000000
		CHANNELS 6 Xposition Yposition Zposition Zrotation Yrotation Xrotation
		JOINT LeftLeg
		{
			OFFSET 0.000000 -0.000004 -38.200321
			CHANNELS 6 Xposition Yposition Zposition Zrotation Yrotation Xrotation
			JOINT LeftFoot
			{
				OFFSET 0.000000 -0.000004 -39.900856
				CHANNELS 6 Xposition Yposition Zposition Zrotation Yrotation Xrotation
				JOINT LeftToeBase
				{
					OFFSET 0.000000 -15.261639 0.000001
					CHANNELS 6 Xposition Yposition Zposition Zrotation Yrotation Xrotation
					JOINT LeftToeBaseEnd
					{
						OFFSET 0.000000 -7.539997 0.000001
						CHANNELS 6 Xposition Yposition Zposition Zrotation Yrotation Xrotation
						End Site
						{
							OFFSET 0.000000 0.000000 0.100000
						}
					}
				}
				JOINT LeftLegEnd
				{
					OFFSET 0.000000 0.000000 0.000000
					CHANNELS 6 Xposition Yposition Zposition Zrotation Yrotation Xrotation
					End Site
					{
						OFFSET 0.000000 0.000000 0.100000
					}
				}
			}
			JOINT LeftUpLegEnd
			{
				OFFSET 0.000000 0.000000 0.000000
				CHANNELS 6 Xposition Yposition Zposition Zrotation Yrotation Xrotation
				End Site
				{
					OFFSET 0.000000 0.000000 0.099998
				}
			}
		}
	}
}
MOTION
Frames: 2
Frame Time: 0.016667
9.623989 -11.050617 85.248169 -14.237200 -5.802572 -14.548361 0.000000 2.080102 8.814257 1.116124 3.563359 6.008586 0.000001 -0.000002 8.844158 -2.394372 -8.547276 2.097107 0.000002 0.000001 11.682272 7.042173 13.417859 17.191212 -0.000000 -0.000002 11.746689 0.600981 1.123573 1.840188 0.000000 -0.000003 17.658283 10.948855 3.790472 17.546239 -0.000001 0.000001 5.101520 5.346227 3.152144 -4.231786 0.000002 -0.000007 5.101512 2.812823 2.436104 -26.857941 0.000001 -0.000000 11.655044 -0.000000 -0.000001 0.000000 -2.625394 0.000005 11.175209 6.512610 -97.389120 -0.374199 -0.000029 -0.000002 10.434734 -55.468079 -45.167194 54.236258 0.000004 0.000008 29.628416 20.936314 -1.637803 33.818951 -0.000003 0.000006 22.857628 16.101275 -3.635765 -10.036286 -2.867317 -2.944307 3.959570 31.623854 -17.268315 51.506200 0.000001 0.000000 3.350419 -12.679255 8.429130 -22.889460 0.000002 0.000020 3.756527 -8.440075 6.403259 -15.670423 -0.000004 -0.000003 3.147324 -0.000001 -0.000002 -0.000002 -0.086761 -2.345285 10.030910 -11.942836 -16.518988 4.056510 -0.000004 -0.000001 4.061094 0.321928 -11.921895 1.700473 0.000001 -0.000005 3.248903 -0.178449 -11.921855 1.700550 -0.000008 -0.000004 2.639713 0.000001 0.000002 -0.000002 0.104102 -0.006769 9.502949 -6.760018 -17.028790 0.838108 0.000003 -0.000002 4.568746 0.429318 -12.106036 0.646567 0.000002 -0.000001 3.655012 -0.070798 -12.106048 0.648912 0.000003 -0.000005 2.741259 -0.000001 0.000003 -0.000000 0.086754 2.267436 8.921710 1.487315 -17.604232 -2.435043 0.000006 0.000000 4.061117 -0.912683 -12.591542 -0.783015 0.000006 0.000003 3.654992 0.087583 -12.591689 -0.782436 0.000002 0.000003 2.741241 -0.000001 -0.000001 0.000000 -0.173508 4.467198 7.976996 10.330793 -16.230674 -7.623797 -0.000005 -0.000001 3.350402 -1.740856 -12.225045 -2.413906 -0.000016 0.000002 2.842784 0.260479 -12.225197 -2.414191 0.000004 0.000001 2.639724 0.000000 -0.000001 0.000000 0.000001 -0.000004 0.000016 -0.000000 0.000000 -0.000001 0.000005 -0.000002 0.000015 0.000001 0.000000 0.000001 2.625401 0.000004 11.175200 -6.372235 94.645487 -1.345509 0.000006 -0.000001 10.813627 50.121489 35.501766 36.957665 -0.000003 -0.000008 28.724764 -8.614257 2.427152 50.898184 0.644379 0.328873 25.716162 -22.045518 -1.221186 -18.127983 2.867315 -2.944309 3.959552 -31.800323 16.060401 53.378130 -0.000003 -0.000001 3.350406 10.021665 -7.236982 -18.397900 -0.000002 0.000002 3.756530 6.707802 -5.373701 -12.625532 0.000000 -0.000001 3.099990 0.000000 -0.000000 0.000001 0.086759 -2.345282 10.030903 -6.576303 10.886479 -5.259250 -0.000001 0.000001 4.061098 0.416783 8.125739 -1.150004 0.000000 0.000001 3.248860 -0.082687 8.125692 -1.149938 0.000004 -0.000001 2.639694 0.000001 -0.000000 0.000000 -0.104105 -0.006769 9.502932 -1.339682 12.144709 -5.250650 -0.000003 -0.000000 4.568744 0.461404 8.833476 -0.467074 0.000002 -0.000000 3.655003 -0.037350 8.833771 -0.467721 -0.000001 0.000001 2.741242 -0.000002 0.000002 0.000001 -0.086752 2.267437 8.921698 7.309478 14.913126 -1.663971 0.000002 -0.000005 4.061127 -0.939030 10.457924 0.647160 0.000002 -0.000001 3.654997 0.063517 10.457931 0.649519 0.000004 -0.000002 2.741257 0.000003 0.000001 0.000000 0.173497 4.467190 7.976965 16.411276 15.961573 1.803673 0.000008 -0.000002 3.350414 -1.783989 11.128947 2.191874 0.000004 -0.000000 2.842771 0.218388 11.128934 2.192341 0.000000 0.000004 2.639710 -0.000001 0.000002 0.000001 -0.000002 -0.000005 -0.000032 -0.000003 -0.000001 0.000002 -0.000001 -0.000005 0.000002 0.000001 0.000002 -0.000000 -11.289944 -0.000006 -0.000008 -6.262834 22.556649 7.887433 -0.000004 -0.000008 -38.200317 -0.923165 0.457951 26.602019 -0.000002 -0.000006 -39.900856 -15.960900 -10.567259 15.124764 -0.000001 -15.261641 0.000006 -2.038125 1.484492 -27.093040 -0.000002 -7.370710 0.000001 -0.000002 0.000001 0.000000 -0.000002 -0.000003 0.000001 -0.000000 0.000000 0.000002 0.000001 -0.000002 0.000003 0.000001 -0.000000 0.000000 11.315660 -0.000005 0.000012 4.421301 10.502422 18.331666 0.000004 -0.000005 -38.200310 0.058733 -0.012747 12.198056 0.000006 -0.000006 -39.900852 5.311127 -10.501187 10.429154 0.000002 -15.261642 0.000001 0.311082 0.751705 -26.642287 0.000001 -7.539998 0.000001 0.000001 -0.000000 -0.000000 0.000001 -0.000004 0.000001 -0.000000 -0.000000 -0.000004 0.000004 -0.000003 -0.000003 -0.000000 -0.000001 -0.000002 
9.799290 -11.129047 85.241501 -14.382659 -5.709423 -14.491672 -0.000000 2.080109 8.814254 1.093678 3.537714 6.030825 -0.000000 -0.000001 8.844150 -2.365468 -8.480147 2.096015 -0.000001 -0.000002 11.682259 7.014720 13.373907 17.059919 -0.000001 0.000001 11.746695 0.599754 1.085211 1.785502 0.000002 -0.000003 17.658262 10.916602 3.813496 17.476024 0.000000 0.000002 5.101527 5.323445 3.153982 -4.231222 0.000001 0.000004 5.101511 2.814492 2.420342 -26.783801 0.000001 -0.000000 11.655090 0.000001 0.000000 0.000000 -2.625387 -0.000000 11.175211 6.511129 -97.321337 -0.375760 0.000020 -0.000002 10.434732 -55.679770 -45.218048 54.272991 0.000005 -0.000006 29.628450 20.849540 -1.553045 34.086442 0.000009 -0.000004 22.857605 15.992338 -3.635509 -10.137079 -2.867321 -2.944311 3.959579 31.623861 -17.268310 51.506255 0.000003 0.000009 3.350436 -12.679278 8.429131 -22.889484 0.000002 -0.000008 3.756520 -8.440094 6.403240 -15.670455 -0.000004 -0.000003 3.147352 -0.000001 -0.000001 0.000001 -0.086763 -2.345285 10.030912 -11.966440 -16.619303 4.045512 -0.000007 -0.000002 4.061084 0.320407 -11.990603 1.710452 -0.000005 -0.000004 3.248874 -0.179934 -11.990582 1.710517 -0.000002 0.000000 2.639709 -0.000001 0.000000 0.000001 0.104092 -0.006769 9.502950 -6.779602 -17.123385 0.794794 -0.000003 -0.000002 4.568726 0.428779 -12.171266 0.648202 -0.000003 0.000001 3.655011 -0.071447 -12.171271 0.650968 -0.000009 0.000000 2.741240 0.000000 -0.000002 -0.000000 0.086756 2.267441 8.921716 1.473044 -17.679443 -2.531032 0.000009 0.000000 4.061104 -0.912531 -12.650852 -0.786664 -0.000002 -0.000001 3.655013 0.088807 -12.650154 -0.786574 0.000002 -0.000001 2.741226 -0.000001 0.000000 0.000000 -0.173500 4.467193 7.977027 10.318625 -16.271426 -7.749720 -0.000007 0.000001 3.350410 -1.740043 -12.273091 -2.423309 0.000000 0.000001 2.842762 0.261536 -12.272461 -2.423636 -0.000002 0.000001 2.639711 0.000000 0.000002 0.000000 -0.000003 -0.000003 0.000015 -0.000000 0.000000 0.000000 0.000004 -0.000001 0.000000 -0.000001 0.000000 -0.000000 2.625398 0.000001 11.175220 -6.424297 94.582725 -1.355200 -0.000010 0.000004 10.813618 50.312922 35.493911 37.122819 -0.000005 0.000002 28.724775 -8.820423 2.375894 50.996398 0.644380 0.328881 25.716150 -22.078073 -1.123278 -18.176267 2.867319 -2.944312 3.959555 -31.800357 16.060374 53.378092 -0.000004 -0.000005 3.350411 10.021636 -7.236953 -18.397926 -0.000001 0.000002 3.756531 6.707781 -5.373672 -12.625486 -0.000004 0.000007 3.100005 0.000000 -0.000000 0.000001 0.086757 -2.345282 10.030921 -6.553456 11.014880 -5.353215 0.000003 -0.000002 4.061110 0.415054 8.225051 -1.164199 -0.000002 0.000000 3.248870 -0.084565 8.224820 -1.164131 0.000002 -0.000001 2.639725 0.000000 -0.000002 -0.000002 -0.104103 -0.006768 9.502950 -1.314005 12.287690 -5.326065 -0.000001 0.000002 4.568728 0.460644 8.938132 -0.472660 -0.000001 -0.000002 3.654979 -0.038206 8.938366 -0.472461 0.000001 0.000001 2.741257 -0.000001 0.000000 0.000000 -0.086750 2.267438 8.921703 7.346003 15.089450 -1.688660 0.000002 0.000003 4.061131 -0.937366 10.581418 0.655021 0.000006 -0.000001 3.655030 0.064712 10.581402 0.655413 -0.000002 -0.000000 2.741272 0.000001 -0.000000 -0.000001 0.173508 4.467194 7.976994 16.462238 16.154027 1.847420 0.000008 -0.000000 3.350404 -1.781077 11.266694 2.219223 -0.000001 -0.000005 2.842753 0.221027 11.266428 2.219630 -0.000004 -0.000000 2.639710 -0.000002 0.000001 0.000001 0.000001 -0.000005 -0.000014 0.000001 0.000000 -0.000002 -0.000001 0.000010 -0.000001 -0.000002 -0.000000 0.000000 -11.289946 -0.000005 -0.000003 -6.538304 22.535514 7.778881 0.000005 -0.000009 -38.200325 -0.927843 0.456856 26.410111 -0.000006 -0.000002 -39.900856 -16.269116 -10.406955 15.256175 -0.000006 -15.261640 -0.000001 -2.034450 1.491075 -27.036465 0.000002 -7.370713 0.000001 0.000001 0.000001 0.000000 -0.000004 -0.000003 -0.000001 -0.000000 -0.000001 0.000001 -0.000001 -0.000002 0.000001 -0.000001 -0.000000 -0.000001 11.315661 0.000001 0.000003 4.529021 10.531755 18.347111 0.000000 -0.000004 -38.200310 0.048892 -0.010547 12.164226 0.000006 -0.000007 -39.900848 5.400984 -10.631619 10.398882 0.000003 -15.261636 0.000002 0.321967 0.750253 -26.628637 0.000001 -7.539994 0.000000 0.000002 -0.000001 -0.000000 0.000002 0.000000 -0.000000 -0.000001 -0.000000 -0.000002 0.000004 0.000005 0.000005 0.000000 -0.000001 -0.000003 
